<?xml version="1.0" standalone="no"?>
<!DOCTYPE svg PUBLIC "-//W3C//DTD SVG 20010904//EN"
 "http://www.w3.org/TR/2001/REC-SVG-20010904/DTD/svg10.dtd">
<svg version="1.0" xmlns="http://www.w3.org/2000/svg"
 width="257.000000pt" height="257.000000pt" viewBox="0 0 257.000000 257.000000"
 preserveAspectRatio="xMidYMid meet">
<metadata>
Created by potrace 1.11, written by Peter Selinger 2001-2013
</metadata>
<g transform="translate(0.000000,257.000000) scale(0.100000,-0.100000)"
fill="#000000" stroke="none">
<path d="M1178 2495 c-68 -22 -152 -83 -198 -144 -22 -29 -40 -58 -40 -65 0
-6 13 10 29 35 37 58 75 90 158 131 63 31 74 33 173 33 93 0 111 -3 160 -26
74 -36 111 -68 159 -140 52 -77 67 -148 53 -247 -8 -58 -25 -103 -82 -220 -48
-97 -76 -170 -85 -215 -16 -84 -35 -107 -87 -107 l-38 0 -1 93 c-1 50 -2 121
-4 157 -3 54 3 81 32 160 19 52 41 110 49 128 20 46 19 48 -28 49 -33 0 -36
-1 -10 -4 17 -2 32 -9 32 -14 0 -6 -18 -58 -41 -117 -22 -59 -45 -122 -50
-140 -6 -18 -14 -30 -20 -27 -12 8 -12 135 1 135 6 0 10 5 10 10 0 6 -22 10
-50 10 -45 0 -67 -13 -39 -22 18 -6 21 -114 3 -128 -11 -10 -14 -10 -14 0 0 7
-25 71 -55 141 -30 70 -55 132 -55 138 0 15 73 27 78 12 2 -6 8 -11 13 -11 6
0 8 4 4 9 -3 5 9 12 27 15 18 2 -4 3 -50 1 -46 -2 -86 -6 -89 -9 -6 -6 6 -38
60 -156 38 -83 58 -148 48 -154 -4 -3 -5 -67 -3 -142 l5 -137 -48 5 c-26 3
-54 13 -62 21 -9 9 -22 47 -29 86 -10 53 -31 103 -83 198 -75 139 -100 209
-103 287 -1 48 -2 48 -5 11 -8 -77 16 -154 93 -303 56 -105 77 -156 81 -195 3
-29 16 -71 30 -95 22 -38 25 -57 27 -165 l3 -121 48 -42 49 -42 -70 -15 c-38
-9 -97 -20 -132 -26 -34 -5 -67 -13 -72 -16 -5 -3 -29 -8 -52 -11 -53 -7 -62
-14 -17 -14 32 -1 31 -2 -20 -19 -52 -18 -54 -18 -97 0 -32 15 -57 18 -102 14
-59 -4 -126 -23 -89 -24 10 -1 27 4 37 9 12 6 21 7 25 1 10 -17 -30 -31 -68
-24 -43 7 -91 -10 -129 -45 -24 -22 -30 -23 -74 -14 -37 8 -55 7 -78 -4 -25
-11 -26 -13 -6 -8 14 4 27 7 30 7 3 0 29 -3 58 -7 44 -7 56 -5 73 10 10 9 19
14 19 9 0 -4 6 -2 14 4 10 8 22 8 47 -3 19 -7 40 -11 47 -9 7 3 10 -1 7 -9 -4
-10 -23 -14 -63 -14 -31 -1 -73 -6 -92 -12 -32 -11 -33 -11 -5 -7 17 2 42 7
57 11 34 8 81 -3 72 -17 -3 -6 -17 -8 -29 -5 -36 9 -55 -3 -72 -45 -8 -22 -17
-39 -19 -39 -1 0 -15 11 -30 25 -15 14 -36 24 -48 24 -20 -1 -20 -2 -1 -6 26
-6 65 -42 65 -60 0 -17 -41 -17 -76 2 -16 8 -40 14 -54 14 -21 -1 -19 -2 8 -9
19 -4 39 -13 45 -19 6 -6 19 -11 29 -11 10 0 18 -5 18 -10 0 -17 -26 -22 -64
-12 -22 6 -47 7 -63 2 l-28 -9 30 1 c17 1 49 -2 73 -6 38 -7 47 -5 68 15 26
25 28 24 38 -7 10 -32 -37 -68 -68 -52 -18 10 -19 9 -8 -4 11 -14 3 -16 -82
-20 -86 -3 -98 -5 -118 -28 l-23 -24 24 19 c19 17 40 20 127 21 77 1 106 -2
115 -12 18 -22 35 -17 62 20 21 27 34 34 74 39 61 7 82 -10 24 -19 -24 -4 -55
-17 -69 -28 -46 -37 -77 -47 -99 -31 -11 9 -41 14 -78 13 l-60 -1 63 -7 c35
-4 68 -13 75 -20 10 -9 1 -11 -43 -6 -49 5 -51 4 -20 -5 19 -6 47 -11 62 -10
40 0 44 -17 6 -27 -26 -7 -16 -9 45 -7 52 1 76 -2 74 -9 -5 -16 -84 -27 -157
-22 -43 3 -56 2 -40 -4 14 -4 61 -9 105 -9 l80 -2 -24 -19 c-27 -23 -75 -25
-111 -5 -36 21 -83 18 -114 -6 -22 -17 -35 -20 -71 -15 -52 8 -86 -6 -130 -56
l-30 -33 35 32 c49 44 85 56 127 42 28 -9 38 -8 58 5 42 27 68 34 95 24 23 -9
19 -12 -45 -30 -38 -10 -81 -29 -94 -41 -25 -24 -143 -198 -138 -204 2 -2 34
40 71 93 79 112 108 129 238 144 83 10 107 6 75 -11 -9 -6 -17 -17 -17 -26 0
-12 -8 -14 -37 -10 -21 3 -45 2 -54 -1 -22 -10 -82 -62 -77 -67 2 -3 20 9 39
25 19 16 45 29 59 29 34 1 70 -10 70 -20 0 -10 -52 -59 -63 -59 -4 0 -25 -12
-45 -26 -43 -30 -37 -29 40 11 40 20 62 39 73 61 8 17 21 37 30 44 8 7 12 16
10 21 -3 4 7 15 22 23 16 7 37 23 47 35 30 33 34 25 18 -34 -8 -30 -19 -55
-23 -55 -4 0 -5 -8 -3 -18 5 -21 -9 -38 -61 -77 -22 -16 -46 -35 -53 -42 -18
-18 -74 -134 -68 -140 3 -3 19 24 36 60 25 54 40 72 86 102 64 43 81 65 99
136 17 64 27 75 49 54 27 -27 20 -60 -16 -79 -18 -8 -29 -16 -24 -16 5 0 3 -7
-4 -15 -7 -9 -12 -36 -12 -60 1 -24 -2 -47 -8 -50 -5 -3 -10 -12 -10 -18 0 -7
4 -6 10 3 9 13 11 13 20 0 35 -53 -15 -89 -100 -71 -63 14 -56 14 -74 -5 -9
-8 -16 -32 -16 -53 0 -37 -1 -39 -41 -44 -25 -3 -52 -16 -68 -31 -20 -19 -38
-26 -67 -26 -21 -1 -50 -7 -64 -15 l-25 -15 33 5 c17 3 46 7 63 10 17 3 44 16
61 30 57 48 148 24 96 -25 -12 -11 -17 -20 -11 -20 16 0 46 38 38 50 -8 13 62
79 85 80 8 0 32 -5 53 -11 l37 -10 -24 -32 c-28 -37 -42 -77 -27 -77 5 0 12 9
16 19 3 11 13 25 22 33 15 12 16 10 10 -19 -4 -19 -2 -33 3 -33 11 0 21 36 17
65 -1 14 10 25 43 41 25 13 47 23 50 23 3 1 4 -19 2 -44 -3 -35 -8 -45 -21
-45 -10 0 -26 -10 -37 -22 l-19 -22 25 17 c31 22 41 21 34 0 -4 -13 -1 -12 13
4 11 14 19 43 21 75 2 30 11 61 21 74 l18 23 13 -23 c10 -19 9 -29 -5 -57
l-17 -34 25 29 c22 28 24 28 29 9 7 -27 -1 -38 -37 -57 -17 -9 -23 -16 -14
-16 9 0 29 10 44 21 21 17 25 27 20 48 -3 14 -5 45 -5 68 1 24 -3 51 -9 61
-10 18 7 92 21 92 4 0 14 -10 22 -22 14 -19 14 -24 1 -38 -20 -22 -19 -39 5
-75 27 -41 26 -96 -2 -122 -13 -11 -47 -28 -75 -38 -29 -9 -56 -21 -60 -27 -4
-8 0 -9 13 -4 10 5 39 15 64 23 55 19 90 49 90 78 0 21 2 21 34 -9 l35 -30
-20 -36 -21 -35 25 29 25 29 5 -29 c3 -16 5 16 5 71 1 55 1 103 1 108 1 4 12
0 26 -9 15 -10 25 -26 26 -43 1 -18 3 -20 6 -8 5 18 6 18 24 1 10 -9 19 -23
19 -31 0 -19 -30 -63 -60 -90 -14 -12 -20 -23 -15 -23 19 0 74 57 81 84 10 40
24 20 24 -35 0 -27 5 -49 10 -49 6 0 10 10 10 23 l1 22 18 -22 c36 -43 44 -22
9 23 -12 15 -23 34 -24 41 -1 8 -11 26 -21 40 -47 67 -55 101 -28 123 13 11
18 10 29 -5 7 -10 13 -31 14 -47 0 -16 10 -44 22 -63 12 -20 26 -48 31 -63 8
-25 9 -24 4 7 -3 19 -12 42 -21 52 -8 9 -18 34 -21 54 -7 42 -1 42 46 1 13
-12 20 -14 16 -6 -5 8 -19 23 -32 33 -28 22 -28 28 -3 57 11 13 20 35 20 49 1
25 1 25 15 7 19 -25 20 -7 1 20 -8 11 -11 26 -7 33 14 22 43 -37 39 -80 -2
-21 0 -35 4 -31 4 4 8 27 9 52 1 25 9 61 17 80 l15 35 6 -30 c5 -22 1 -36 -12
-50 -13 -14 -17 -29 -13 -50 20 -104 20 -105 -2 -105 -49 0 -84 -90 -46 -120
13 -12 14 -10 3 13 -6 14 -8 34 -5 44 7 16 9 14 23 -11 8 -15 12 -37 10 -48
-3 -12 0 -21 10 -25 8 -3 19 -17 24 -31 5 -14 12 -22 15 -19 3 3 -3 20 -12 39
-14 25 -51 121 -54 135 0 1 18 7 40 13 34 9 40 15 40 38 0 16 -5 33 -10 38 -7
7 -4 17 7 30 10 10 17 30 15 42 -3 18 1 23 14 20 21 -4 31 -28 12 -28 -8 0
-15 -6 -16 -12 -1 -7 -4 -29 -6 -48 -3 -19 -3 -26 1 -15 7 25 33 63 33 49 0
-6 -9 -30 -21 -53 -12 -25 -19 -58 -18 -80 2 -20 -3 -48 -10 -63 -14 -28 -8
-92 10 -104 6 -4 8 12 3 44 -4 34 -2 52 6 57 20 12 41 -27 36 -67 -4 -34 -2
-37 24 -36 27 1 27 2 18 42 -5 23 -17 55 -27 71 -23 39 -30 70 -21 85 12 19
30 2 30 -29 0 -16 10 -41 23 -57 12 -15 27 -44 34 -64 l12 -35 -6 35 c-3 19
-14 46 -24 59 -11 13 -19 37 -19 52 0 16 -8 37 -18 47 -17 17 -17 20 -1 56 17
39 34 35 24 -6 -4 -16 1 -33 15 -51 15 -19 18 -31 12 -44 -13 -24 -5 -43 30
-73 16 -14 33 -41 38 -60 l8 -35 1 31 c1 22 -9 42 -34 70 -36 40 -42 58 -25
69 16 10 12 77 -7 97 -21 24 -10 34 16 16 12 -8 18 -18 14 -22 -4 -3 7 -3 24
0 31 6 32 5 39 -41 3 -26 4 -75 0 -109 -5 -47 -3 -67 10 -84 22 -31 31 -27 32
15 2 39 20 93 31 93 12 0 28 -15 40 -37 10 -19 9 -23 -3 -23 -16 0 -46 -37
-46 -57 0 -7 5 -13 10 -13 6 0 10 9 10 20 0 16 37 49 44 38 1 -2 7 -15 15 -29
9 -19 20 -26 42 -26 37 0 37 12 0 31 -34 18 -62 80 -33 74 9 -2 18 -12 20 -23
2 -11 8 -24 13 -29 5 -5 4 6 -1 25 -10 38 0 28 32 -30 15 -27 23 -31 58 -31
23 0 39 -4 36 -9 -3 -5 5 -8 19 -7 15 0 20 5 14 10 -5 6 -9 33 -9 62 0 49 -2
53 -34 72 -28 17 -34 27 -38 63 -3 24 -4 46 -2 47 1 2 25 -14 53 -36 28 -22
54 -42 58 -44 12 -5 45 -100 45 -128 0 -35 15 -50 52 -49 17 1 23 3 14 6 -22
5 -22 1 0 44 l18 35 33 -43 c30 -39 51 -54 51 -37 0 4 -15 25 -34 48 -18 23
-56 71 -85 108 -44 58 -49 68 -31 68 11 0 29 -9 40 -20 11 -11 29 -20 40 -20
11 0 20 -5 20 -11 0 -6 21 -33 48 -61 26 -27 57 -61 69 -74 12 -13 30 -24 40
-23 13 0 11 3 -7 10 -14 5 -34 22 -43 38 -9 16 -30 40 -46 53 -16 14 -34 34
-40 46 -20 38 18 27 59 -18 20 -22 43 -40 51 -39 8 0 4 5 -9 11 -12 6 -32 26
-43 45 -14 23 -28 33 -45 33 -13 0 -33 9 -44 20 -11 11 -26 20 -34 20 -17 0
-30 35 -20 51 4 8 3 9 -5 5 -12 -8 -41 10 -41 25 0 5 11 11 25 15 17 4 39 -3
75 -25 28 -17 56 -31 63 -31 6 0 -2 8 -20 16 -18 9 -32 19 -31 23 1 7 -9 35
-24 67 -6 12 -21 27 -34 33 -16 7 -24 19 -24 34 0 24 0 24 33 -7 18 -17 36
-39 40 -48 3 -10 23 -25 44 -35 43 -21 68 -68 43 -83 -12 -8 -11 -10 6 -10 11
0 30 -14 42 -30 13 -17 28 -30 35 -30 6 0 1 7 -11 16 -32 22 -30 46 3 34 38
-14 30 -3 -11 17 -25 12 -40 28 -48 51 -7 22 -24 40 -51 55 -34 19 -40 28 -43
61 -1 23 -10 45 -20 52 -9 7 -14 16 -10 20 8 8 108 -88 125 -119 6 -12 25 -20
54 -24 24 -2 66 -16 92 -30 27 -14 50 -23 53 -20 9 8 -101 57 -139 62 -50 6
-54 9 -62 52 -4 21 -14 46 -22 56 -15 16 -14 17 10 17 15 0 49 -13 75 -30 41
-25 60 -30 111 -30 59 0 65 -2 103 -40 40 -39 74 -57 85 -46 4 3 -2 6 -12 6
-10 0 -37 21 -61 46 -41 45 -45 47 -111 53 -47 4 -80 14 -103 29 l-35 24 45
-6 c31 -3 39 -2 25 4 -11 5 -36 9 -55 9 -35 1 -60 15 -60 34 0 5 8 6 18 2 30
-12 114 -23 104 -13 -4 4 -35 13 -67 18 -59 10 -75 21 -75 52 0 25 41 34 56
13 7 -10 15 -22 16 -27 2 -5 14 -10 28 -10 14 -1 38 -10 53 -21 30 -21 48 -20
142 7 28 8 42 15 32 15 -11 1 -44 -6 -74 -15 -42 -12 -61 -14 -79 -5 -32 14
-30 37 3 55 16 8 24 15 18 15 -5 0 -21 -6 -35 -13 -23 -13 -26 -12 -45 22 -26
47 -78 82 -124 83 l-36 1 35 10 c19 6 60 8 90 5 36 -4 50 -3 40 3 -20 13 -122
13 -155 0 -30 -12 -55 -3 -34 12 10 7 8 8 -8 3 -25 -7 -42 13 -22 26 8 5 29 8
47 6 38 -4 40 0 10 14 -18 7 -12 8 25 4 27 -2 58 -12 70 -20 24 -17 73 -20 82
-6 3 5 22 8 43 5 36 -4 36 -4 7 6 -20 6 -40 6 -61 -2 -26 -9 -38 -8 -75 9 -24
11 -52 23 -63 27 -18 6 -18 7 -1 26 10 11 14 20 8 20 -5 0 -18 -9 -28 -20 -17
-19 -26 -20 -84 -14 -43 4 -73 13 -86 24 -11 11 -31 23 -45 29 l-25 10 25 0
c14 1 33 -8 43 -19 12 -14 29 -20 58 -20 22 0 50 -5 62 -11 21 -10 21 -10 3 5
-11 9 -34 16 -51 16 -17 0 -39 6 -48 13 -15 10 -12 12 20 10 92 -6 194 -23
222 -37 44 -23 52 -19 11 5 l-35 20 50 -5 c33 -3 43 -2 30 4 -11 5 -49 9 -85
9 -87 2 -145 11 -128 22 9 6 5 9 -14 9 -26 0 -46 15 -35 27 3 3 41 5 84 5 74
1 76 1 28 9 -27 4 -69 5 -92 2 -29 -3 -49 0 -65 11 -14 10 -43 16 -78 16 -59
0 -94 12 -67 23 8 3 23 4 34 2 54 -11 93 -13 88 -4 -4 5 -23 9 -43 9 -20 0
-44 5 -52 10 -20 13 31 13 80 1 52 -14 135 -21 119 -10 -8 5 -29 9 -47 9 -18
0 -49 7 -69 15 -21 9 -56 15 -78 14 -23 -2 -48 1 -55 6 -8 5 -48 10 -90 11
-41 1 -94 7 -118 13 -53 14 -181 57 -188 63 -3 3 16 25 41 49 27 26 43 49 40
57 -3 8 0 21 7 29 9 11 9 16 -2 23 -11 7 -11 12 -2 22 9 11 9 17 -1 27 -9 9
-9 14 2 21 12 7 12 11 2 23 -8 10 -9 17 -1 22 5 3 7 17 4 29 -3 15 3 35 19 59
15 23 27 58 31 96 5 47 23 93 82 209 87 173 103 237 86 340 -22 132 -102 238
-222 295 -55 27 -78 32 -155 34 -59 2 -106 -2 -137 -12z m132 -610 c0 -30 -4
-55 -10 -55 -5 0 -10 25 -10 55 0 30 5 55 10 55 6 0 10 -25 10 -55z m38 -97
c17 -17 15 -58 -3 -58 -8 0 -15 6 -15 14 0 16 -34 31 -50 21 -5 -3 -10 -13
-10 -21 0 -8 -4 -14 -10 -14 -11 0 -14 53 -3 63 11 12 78 8 91 -5z m-38 -43
c0 -8 -4 -15 -9 -15 -13 0 -22 16 -14 24 11 11 23 6 23 -9z m43 -132 c5 -66 4
-83 -7 -83 -8 0 -17 7 -20 16 -8 21 -8 149 1 158 14 13 21 -11 26 -91z m-83 1
c0 -54 -4 -83 -10 -79 -11 7 -14 148 -3 158 12 13 13 7 13 -79z m39 2 c1 -45
-2 -77 -8 -81 -8 -4 -11 20 -11 74 0 102 15 107 19 7z m84 -123 c-7 -2 -21 -2
-30 0 -10 3 -4 5 12 5 17 0 24 -2 18 -5z m17 -28 c0 -10 -10 -15 -30 -15 -20
0 -30 5 -30 15 0 10 10 15 30 15 20 0 30 -5 30 -15z m-33 -41 c-3 -3 -12 -4
-19 -1 -8 3 -5 6 6 6 11 1 17 -2 13 -5z m-4 -51 c-7 -2 -19 -2 -25 0 -7 3 -2
5 12 5 14 0 19 -2 13 -5z m10 -50 c-7 -2 -21 -2 -30 0 -10 3 -4 5 12 5 17 0
24 -2 18 -5z m401 -258 c11 -8 15 -15 10 -15 -6 0 -19 7 -30 15 -10 8 -14 14
-9 14 6 0 19 -6 29 -14z m-1053 -23 c-7 -2 -18 1 -23 6 -8 8 -4 9 13 5 13 -4
18 -8 10 -11z m519 9 c0 -6 -4 -13 -10 -16 -5 -3 -10 1 -10 9 0 9 5 16 10 16
6 0 10 -4 10 -9z m160 -1 c0 -5 -5 -10 -11 -10 -5 0 -7 5 -4 10 3 6 8 10 11
10 2 0 4 -4 4 -10z m320 -14 c0 -9 -8 -12 -27 -8 -25 5 -25 6 -8 13 29 11 35
10 35 -5z m-1156 -2 c20 -8 20 -20 1 -28 -22 -8 -70 15 -53 26 16 9 31 10 52
2z m131 -4 c4 -6 -7 -10 -25 -10 -18 0 -29 4 -25 10 3 6 15 10 25 10 10 0 22
-4 25 -10z m1070 -28 c-8 -8 -25 10 -25 26 0 13 2 13 14 -4 8 -10 13 -21 11
-22z m-998 22 c-3 -3 -12 -4 -19 -1 -8 3 -5 6 6 6 11 1 17 -2 13 -5z m108 -14
c-3 -5 -11 -10 -16 -10 -6 0 -7 5 -4 10 3 6 11 10 16 10 6 0 7 -4 4 -10z
m-241 -41 c-18 -20 -54 -26 -54 -10 0 16 41 40 57 34 12 -5 11 -9 -3 -24z
m211 11 c-3 -5 -11 -10 -16 -10 -6 0 -7 5 -4 10 3 6 11 10 16 10 6 0 7 -4 4
-10z m1085 -5 c10 -12 10 -15 -3 -15 -8 0 -17 7 -21 15 -3 8 -2 15 3 15 5 0
14 -7 21 -15z m-120 -10 c-7 -9 -15 -13 -17 -11 -7 7 7 26 19 26 6 0 6 -6 -2
-15z m66 -13 c-22 -5 -30 3 -21 18 5 8 11 7 22 -2 15 -12 14 -13 -1 -16z
m-1107 -8 c10 -9 -35 -3 -49 6 -11 8 -7 9 15 4 17 -4 32 -8 34 -10z m251 12
c0 -3 -4 -8 -10 -11 -5 -3 -10 -1 -10 4 0 6 5 11 10 11 6 0 10 -2 10 -4z m327
-28 c-3 -8 -6 -5 -6 6 -1 11 2 17 5 13 3 -3 4 -12 1 -19z m100 -22 c1 -12 -1
-15 -4 -8 -3 6 -9 12 -14 12 -6 0 -7 -4 -4 -10 3 -5 2 -10 -4 -10 -5 0 -13 5
-16 10 -3 6 -1 10 5 10 6 0 8 5 5 10 -3 6 -3 14 0 20 9 14 31 -9 32 -34z m73
34 c0 -5 -5 -10 -11 -10 -5 0 -7 5 -4 10 3 6 8 10 11 10 2 0 4 -4 4 -10z m460
-5 c10 -12 9 -15 -8 -15 -29 0 -53 11 -46 21 8 14 40 11 54 -6z m-1370 -4 c0
-6 -4 -12 -8 -15 -13 -8 -52 5 -46 15 7 12 54 12 54 0z m370 -1 c0 -5 -5 -10
-11 -10 -5 0 -7 5 -4 10 3 6 8 10 11 10 2 0 4 -4 4 -10z m607 -22 c-3 -7 -5
-2 -5 12 0 14 2 19 5 13 2 -7 2 -19 0 -25z m33 28 c0 -3 -4 -8 -10 -11 -5 -3
-10 -1 -10 4 0 6 5 11 10 11 6 0 10 -2 10 -4z m-893 -12 c-3 -3 -12 -4 -19 -1
-8 3 -5 6 6 6 11 1 17 -2 13 -5z m1118 -4 c-3 -5 -12 -10 -18 -10 -7 0 -6 4 3
10 19 12 23 12 15 0z m-1325 -17 c0 -4 -10 -17 -22 -30 -12 -13 -18 -23 -14
-23 4 0 18 11 31 25 18 20 29 24 49 19 36 -9 32 -25 -16 -55 -40 -26 -43 -26
-74 -12 l-32 16 16 33 c11 24 22 34 39 34 13 0 23 -3 23 -7z m360 -14 c0 -11
-4 -18 -10 -14 -5 3 -7 12 -3 20 7 21 13 19 13 -6z m650 17 c0 -3 -4 -8 -10
-11 -5 -3 -10 -1 -10 4 0 6 5 11 10 11 6 0 10 -2 10 -4z m-370 -16 c12 -7 10
-9 -8 -7 -12 0 -22 5 -22 9 0 11 12 10 30 -2z m-517 -20 c-3 -11 -9 -20 -13
-20 -5 0 -6 9 -3 20 3 11 9 20 13 20 5 0 6 -9 3 -20z m57 10 c0 -5 -9 -10 -20
-10 -11 0 -20 5 -20 10 0 6 9 10 20 10 11 0 20 -4 20 -10z m880 -21 c0 -6 -4
-7 -10 -4 -5 3 -10 11 -10 16 0 6 5 7 10 4 6 -3 10 -11 10 -16z m370 -31 c0
-16 -17 -7 -46 23 l-29 32 37 -24 c21 -13 38 -27 38 -31z m-545 32 c3 -5 1
-10 -4 -10 -6 0 -11 5 -11 10 0 6 2 10 4 10 3 0 8 -4 11 -10z m275 0 c0 -5 -7
-10 -15 -10 -8 0 -15 5 -15 10 0 6 7 10 15 10 8 0 15 -4 15 -10z m48 -8 c2 -7
-3 -12 -12 -12 -9 0 -16 7 -16 16 0 17 22 14 28 -4z m33 -15 c0 -21 1 -21 8
-3 7 19 8 19 13 -1 7 -27 -22 -25 -33 3 -11 27 -10 36 1 29 6 -3 10 -16 11
-28z m-646 2 c-5 -14 -4 -19 4 -15 7 5 8 1 4 -10 -6 -15 -7 -15 -15 1 -5 9 -7
23 -4 31 9 22 18 16 11 -7z m745 11 c-8 -5 -22 -10 -30 -10 -13 0 -13 1 0 10
8 5 22 10 30 10 13 0 13 -1 0 -10z m-1170 -9 c0 -10 -30 -24 -37 -17 -3 3 -2
9 2 15 8 13 35 15 35 2z m237 -13 c-3 -8 -6 -5 -6 6 -1 11 2 17 5 13 3 -3 4
-12 1 -19z m413 -37 c0 -20 -17 -11 -28 14 -18 40 -14 50 8 22 11 -14 20 -30
20 -36z m-750 40 c0 -12 -28 -22 -34 -12 -3 5 -3 11 1 15 9 9 33 7 33 -3z
m412 -23 c-8 -8 -9 -4 -5 13 4 13 8 18 11 10 2 -7 -1 -18 -6 -23z m406 21 c-2
-6 -8 -10 -13 -10 -5 0 -11 4 -13 10 -2 6 4 11 13 11 9 0 15 -5 13 -11z m652
7 c0 -11 -19 -15 -25 -6 -3 5 1 10 9 10 9 0 16 -2 16 -4z m-521 -45 c-2 -6
-10 2 -17 17 -11 25 -11 25 4 10 9 -9 15 -21 13 -27z m479 30 c11 -6 10 -9 -5
-13 -10 -3 -24 -3 -32 0 -11 4 -11 6 0 13 17 11 21 11 37 0z m-1544 -10 c3 -5
-1 -14 -8 -21 -12 -9 -17 -7 -26 9 -9 18 -8 21 9 21 11 0 22 -4 25 -9z m263
-13 c-3 -8 -6 -5 -6 6 -1 11 2 17 5 13 3 -3 4 -12 1 -19z m43 7 c0 -12 -19
-12 -23 0 -4 9 -1 12 9 8 7 -3 14 -7 14 -8z m434 -25 c-6 -6 -10 -3 -10 10 0
13 4 16 10 10 7 -7 7 -13 0 -20z m233 -10 c-6 -16 -12 -28 -13 -27 0 1 -4 16
-8 32 -5 22 -4 26 4 15 8 -13 10 -12 10 3 0 10 4 16 9 13 5 -4 5 -18 -2 -36z
m-557 20 c0 -5 -10 -10 -22 -9 -22 0 -22 1 -3 9 11 5 21 9 23 9 1 1 2 -3 2 -9z
m745 -10 c10 -11 16 -20 13 -20 -3 0 -13 9 -23 20 -10 11 -16 20 -13 20 3 0
13 -9 23 -20z m-1121 -5 c-4 -8 -12 -15 -20 -15 -17 0 -18 17 -1 23 22 9 27 7
21 -8z m68 0 c2 -11 -49 -32 -57 -23 -3 3 -3 13 1 22 7 18 53 19 56 1z m106 3
c-6 -16 -55 -21 -64 -7 -4 8 0 9 15 4 12 -4 21 -2 21 4 0 6 7 11 16 11 9 0 14
-5 12 -12z m147 2 c-4 -6 7 -10 25 -10 21 0 30 -4 28 -12 -7 -19 -45 -21 -69
-5 -20 14 -20 16 -2 26 23 13 26 13 18 1z m82 -24 c-4 -9 -11 -16 -17 -16 -7
0 -8 6 -1 19 6 10 9 21 7 23 -1 3 2 2 7 -3 5 -4 7 -15 4 -23z m162 -20 c-15
-16 -32 9 -24 35 l7 22 14 -24 c8 -15 9 -28 3 -33z m659 35 c3 -8 -1 -12 -9
-9 -7 2 -15 10 -17 17 -3 8 1 12 9 9 7 -2 15 -10 17 -17z m-801 -13 c-3 -8 -6
-5 -6 6 -1 11 2 17 5 13 3 -3 4 -12 1 -19z m893 11 c0 -5 5 -7 10 -4 6 3 10
-3 10 -15 0 -24 -15 -19 -30 11 -7 13 -7 19 0 19 5 0 10 -5 10 -11z m178 2
c11 -7 11 -9 -1 -14 -9 -3 -21 1 -27 9 -10 11 -10 14 1 14 8 0 20 -4 27 -9z
m-1233 -11 c3 -5 1 -10 -4 -10 -6 0 -11 5 -11 10 0 6 2 10 4 10 3 0 8 -4 11
-10z m635 0 c0 -5 -4 -10 -10 -10 -5 0 -10 5 -10 10 0 6 5 10 10 10 6 0 10 -4
10 -10z m53 -10 c-3 -12 -8 -19 -11 -16 -5 6 5 36 12 36 2 0 2 -9 -1 -20z
m412 -24 c2 -19 -1 -23 -13 -20 -13 5 -13 2 2 -10 11 -9 16 -19 13 -23 -4 -4
-14 0 -22 8 -12 12 -13 20 -3 46 13 36 19 36 23 -1z m70 16 c-9 -9 -35 -11
-35 -3 0 14 12 20 26 14 8 -3 12 -8 9 -11z m-1482 -27 c-28 -35 -47 -43 -58
-25 -8 13 45 59 68 60 15 0 14 -5 -10 -35z m1322 25 c3 -5 2 -10 -4 -10 -5 0
-18 -8 -27 -17 -17 -17 -18 -17 -11 0 4 10 7 23 7 28 0 12 27 12 35 -1z m255
1 c0 -12 -29 -23 -41 -15 -5 3 -7 10 -4 15 8 12 45 12 45 0z m-1300 -16 c0 -8
-4 -15 -10 -15 -5 0 -10 7 -10 15 0 8 5 15 10 15 6 0 10 -7 10 -15z m502 -7
c-7 -7 -12 -8 -12 -2 0 14 12 26 19 19 2 -3 -1 -11 -7 -17z m282 7 c11 -8 15
-15 10 -15 -6 0 -19 7 -30 15 -10 8 -14 14 -9 14 6 0 19 -6 29 -14z m126 -5
c0 -4 -6 -13 -14 -20 -12 -9 -15 -8 -13 8 1 17 27 28 27 12z m440 5 c0 -5 -55
-35 -65 -35 -15 0 -2 22 18 30 25 10 47 12 47 5z m-1265 -26 c11 -16 -11 -16
-29 2 -18 17 -18 18 3 12 12 -3 24 -9 26 -14z m148 14 c-7 -2 -21 -2 -30 0
-10 3 -4 5 12 5 17 0 24 -2 18 -5z m953 -9 c-3 -9 -6 -21 -6 -27 0 -8 -3 -8
-10 -1 -12 12 -3 44 12 44 6 0 7 -7 4 -16z m-1336 -4 c0 -13 -43 -30 -76 -30
-33 0 -22 17 19 29 44 13 57 13 57 1z m869 -2 c0 -7 -4 -22 -9 -33 -7 -16 -8
-14 -7 12 1 18 5 33 10 33 4 0 7 -6 6 -12z m71 -8 c0 -5 -9 -8 -20 -7 -20 1
-25 8 -14 20 8 7 34 -3 34 -13z m431 -3 c-10 -9 -11 -8 -5 6 3 10 9 15 12 12
3 -3 0 -11 -7 -18z m222 12 c14 -6 34 -29 46 -50 21 -37 21 -39 3 -39 -11 0
-24 11 -31 26 -10 23 -16 26 -46 21 -21 -3 -46 0 -61 8 l-26 13 28 16 c35 18
55 20 87 5z m-926 -24 c-7 -13 -14 -20 -15 -14 -2 5 2 16 8 24 18 21 20 18 7
-10z m539 -12 c-11 -11 -19 6 -11 24 8 17 8 17 12 0 3 -10 2 -21 -1 -24z
m-1176 23 c0 -2 -7 -7 -16 -10 -8 -3 -12 -2 -9 4 6 10 25 14 25 6z m142 -24
c3 -19 0 -29 -9 -29 -15 0 -15 3 -7 35 8 29 11 28 16 -6z m383 -1 c-3 -6 -11
-11 -17 -11 -6 0 -6 6 2 15 14 17 26 13 15 -4z m180 -9 c1 -18 -1 -19 -19 -11
-18 9 -18 7 3 -10 23 -21 23 -21 2 -21 -27 0 -36 22 -21 50 14 26 33 22 35 -8z
m107 3 c3 -13 1 -22 -3 -19 -9 5 -13 44 -5 44 2 0 6 -11 8 -25z m-751 1 c5 3
9 -2 9 -10 0 -8 -4 -17 -9 -20 -9 -6 -22 17 -20 37 0 8 2 8 6 -1 2 -6 9 -10
14 -6z m49 -6 c0 -11 -4 -20 -9 -20 -5 0 -7 9 -4 20 3 11 7 20 9 20 2 0 4 -9
4 -20z m197 -8 c-10 -10 -18 -29 -18 -43 -2 -22 -2 -23 -6 -2 -4 22 25 78 35
68 3 -3 -2 -13 -11 -23z m60 22 c-3 -3 -12 -4 -19 -1 -8 3 -5 6 6 6 11 1 17
-2 13 -5z m76 -13 c2 -10 1 -25 -4 -32 -5 -8 -9 -20 -9 -28 0 -11 4 -9 15 5
13 17 14 17 15 2 0 -26 -21 -33 -37 -13 -16 23 -17 39 -2 30 7 -5 9 3 6 24 -6
33 7 43 16 12z m166 -29 c1 -7 -3 -10 -9 -7 -5 3 -10 18 -9 33 0 24 1 25 9 7
5 -11 9 -26 9 -33z m281 36 c-1 -20 -36 -62 -43 -51 -4 6 3 22 16 36 26 30 27
31 27 15z m53 6 c-8 -4 -9 -13 -3 -30 7 -18 6 -24 -4 -24 -8 0 -16 6 -19 13
-6 17 11 47 26 46 9 0 9 -2 0 -5z m147 -4 c0 -5 -5 -10 -11 -10 -5 0 -7 5 -4
10 3 6 8 10 11 10 2 0 4 -4 4 -10z m290 0 c0 -5 -12 -10 -27 -10 -22 0 -25 2
-13 10 20 13 40 13 40 0z m-1440 -10 c0 -15 -77 -51 -94 -44 -8 3 -12 12 -9
20 4 10 0 12 -11 8 -9 -4 -16 -1 -16 6 0 7 8 10 20 7 11 -3 22 -2 25 3 7 11
85 11 85 0z m308 -28 c-13 -10 -23 -11 -30 -4 -6 6 -2 15 13 26 17 12 25 13
30 4 5 -7 -1 -18 -13 -26z m487 29 c3 -5 1 -12 -5 -16 -5 -3 -10 1 -10 9 0 18
6 21 15 7z m226 -14 c-10 -9 -11 -8 -5 6 3 10 9 15 12 12 3 -3 0 -11 -7 -18z
m-941 -22 c0 -31 -45 -84 -59 -70 -6 7 -5 23 4 49 21 59 55 72 55 21z m1302
10 c16 -14 23 -25 16 -25 -18 0 -58 28 -58 41 0 15 10 11 42 -16z m-802 5 c0
-5 -5 -10 -11 -10 -5 0 -7 5 -4 10 3 6 8 10 11 10 2 0 4 -4 4 -10z m668 -26
c7 -14 8 -23 2 -19 -15 9 -32 45 -22 45 5 0 14 -12 20 -26z m-918 6 c0 -5 -4
-10 -10 -10 -5 0 -10 5 -10 10 0 6 5 10 10 10 6 0 10 -4 10 -10z m70 -11 c0
-5 -4 -9 -10 -9 -5 0 -10 7 -10 16 0 8 5 12 10 9 6 -3 10 -10 10 -16z m417
-16 c-4 -20 -12 -41 -18 -47 -9 -8 -10 -8 -6 0 3 6 7 27 9 47 1 21 6 37 11 37
5 0 7 -16 4 -37z m696 16 c4 -16 3 -18 -9 -8 -16 13 -19 29 -5 29 5 0 11 -9
14 -21z m37 -10 c0 -10 -4 -19 -10 -19 -5 0 -10 12 -10 26 0 14 4 23 10 19 6
-3 10 -15 10 -26z m-1379 -22 l1 -32 8 33 c8 36 17 49 26 39 3 -3 1 -22 -6
-41 -9 -28 -17 -36 -36 -36 -26 0 -27 2 -18 49 8 38 24 31 25 -12z m979 -27
c0 -10 -59 -9 -66 1 -10 17 4 23 21 9 14 -11 14 -10 0 16 -24 46 -18 51 15 14
16 -19 29 -37 30 -40z m0 55 c0 -8 -4 -15 -9 -15 -5 0 -11 7 -15 15 -3 9 0 15
9 15 8 0 15 -7 15 -15z m150 5 c0 -5 -2 -10 -4 -10 -3 0 -8 5 -11 10 -3 6 -1
10 4 10 6 0 11 -4 11 -10z m-1297 -28 c-3 -12 -9 -19 -14 -16 -5 3 -4 14 2 25
13 26 20 21 12 -9z m732 17 c11 -17 -1 -21 -15 -4 -8 9 -8 15 -2 15 6 0 14 -5
17 -11z m635 1 c13 -8 13 -10 -2 -10 -9 0 -20 5 -23 10 -8 13 5 13 25 0z m116
-28 c-9 -8 -26 10 -26 26 1 15 2 15 15 -2 8 -11 13 -21 11 -24z m-1376 -22
c-17 -32 -22 -18 -8 21 8 22 13 28 16 17 2 -9 -2 -27 -8 -38z m144 23 l-16
-28 26 28 c23 24 26 26 26 9 0 -11 -10 -32 -22 -48 l-22 -29 27 24 c26 24 27
24 27 4 0 -12 -3 -23 -7 -26 -5 -2 -2 -2 5 -1 6 2 12 0 12 -4 -1 -16 -17 -29
-43 -34 -24 -5 -28 -1 -35 26 -5 18 -5 34 1 37 5 4 7 12 3 18 -8 13 10 51 25
51 5 0 2 -12 -7 -27z m79 -30 c-19 -28 -20 -27 -26 14 -5 30 -4 31 18 21 22
-10 23 -12 8 -35z m454 25 c-3 -8 -6 -5 -6 6 -1 11 2 17 5 13 3 -3 4 -12 1
-19z m176 2 c-7 -28 -23 -36 -23 -11 0 10 6 22 13 24 6 3 13 6 14 6 0 1 -1 -8
-4 -19z m22 -68 c-15 -15 -23 16 -12 51 l12 39 3 -42 c2 -23 1 -45 -3 -48z
m195 78 c0 -5 -4 -10 -10 -10 -5 0 -10 5 -10 10 0 6 5 10 10 10 6 0 10 -4 10
-10z m-455 -39 c-7 -22 -29 -28 -40 -10 -9 14 26 52 38 40 5 -5 6 -18 2 -30z
m45 20 c0 -11 -4 -23 -10 -26 -6 -4 -10 5 -10 19 0 14 5 26 10 26 6 0 10 -9
10 -19z m280 -7 c0 -22 -2 -25 -15 -14 -8 7 -15 19 -15 26 0 8 7 14 15 14 10
0 15 -10 15 -26z m-615 6 c3 -5 -1 -10 -10 -10 -9 0 -13 5 -10 10 3 6 8 10 10
10 2 0 7 -4 10 -10z m95 -13 c0 -13 -6 -31 -13 -41 -11 -15 -18 -17 -33 -8
-10 6 -14 12 -8 12 6 0 17 14 24 30 15 36 30 39 30 7z m377 9 c-3 -8 1 -17 9
-20 16 -6 19 -36 4 -36 -5 0 -10 7 -10 15 0 8 -4 15 -10 15 -5 0 -10 9 -10 20
0 11 5 20 11 20 6 0 9 -6 6 -14z m412 -1 c16 -8 31 -12 34 -8 11 10 57 -7 57
-22 0 -20 -29 -19 -36 0 -4 8 -10 15 -15 15 -6 0 -4 -10 2 -22 9 -19 9 -21 -2
-10 -7 6 -28 12 -45 12 -36 0 -47 10 -38 34 7 20 8 20 43 1z m251 0 c7 -9 10
-18 7 -21 -7 -8 -47 14 -47 26 0 15 26 12 40 -5z m-1490 -5 c0 -5 -5 -10 -11
-10 -5 0 -7 5 -4 10 3 6 8 10 11 10 2 0 4 -4 4 -10z m500 1 c0 -5 -9 -11 -19
-14 -14 -3 -18 -1 -14 9 6 15 33 19 33 5z m611 -13 c10 -19 13 -45 10 -117 -2
-46 -13 -12 -15 46 -1 32 -5 66 -10 76 -12 25 1 21 15 -5z m259 -13 c0 -7 6
-20 13 -27 21 -21 28 -48 13 -48 -14 0 -52 49 -48 63 1 4 -3 17 -9 28 -10 19
-9 20 10 9 12 -6 21 -17 21 -25z m87 -9 c25 -25 43 -48 42 -53 -2 -4 -27 16
-56 45 -28 28 -47 52 -41 52 5 0 30 -20 55 -44z m-1567 9 c-7 -9 -23 -21 -34
-27 -14 -8 -11 -1 9 19 30 31 49 37 25 8z m646 -22 c-11 -20 -15 -23 -16 -10
0 21 24 61 28 48 2 -6 -4 -22 -12 -38z m-236 23 c0 -2 -8 -10 -17 -17 -16 -13
-17 -12 -4 4 13 16 21 21 21 13z m394 -30 c-5 -20 -12 -26 -33 -25 -17 1 -20
3 -8 6 9 2 17 13 17 23 0 10 6 20 13 23 17 6 19 3 11 -27z m281 -4 c-6 -6 -35
18 -35 29 0 5 9 1 20 -8 11 -9 17 -19 15 -21z m205 28 c0 -5 -2 -10 -4 -10 -3
0 -8 5 -11 10 -3 6 -1 10 4 10 6 0 11 -4 11 -10z m-1107 -17 c-5 -15 -3 -14
10 2 16 20 16 20 17 -4 0 -20 -4 -22 -24 -17 -15 4 -26 1 -29 -7 -4 -8 -6 -7
-6 4 -1 16 17 39 31 39 4 0 5 -8 1 -17z m940 10 c-7 -2 -19 -2 -25 0 -7 3 -2
5 12 5 14 0 19 -2 13 -5z m47 -19 c0 -8 -4 -12 -10 -9 -5 3 -10 13 -10 21 0 8
5 12 10 9 6 -3 10 -13 10 -21z m-1030 -9 c0 -14 -4 -25 -10 -25 -11 0 -14 33
-3 43 11 11 13 8 13 -18z m307 -14 c-6 -16 -20 -32 -31 -35 -31 -8 -32 1 -3
28 15 14 27 30 27 36 0 6 4 9 9 6 5 -4 5 -18 -2 -35z m303 29 c0 -5 -2 -10 -4
-10 -3 0 -8 5 -11 10 -3 6 -1 10 4 10 6 0 11 -4 11 -10z m-62 -33 c-10 -19 -9
-21 4 -9 25 20 30 -1 11 -44 l-16 -39 -9 30 c-12 38 -12 40 1 93 1 2 6 0 11
-3 7 -4 6 -14 -2 -28z m327 -5 c-6 -7 -45 19 -45 29 0 5 11 2 24 -8 13 -10 23
-19 21 -21z m355 29 c0 -17 -12 -41 -20 -41 -4 0 -15 11 -24 25 -16 25 -16 25
14 25 16 0 30 -4 30 -9z m63 -10 c-6 -25 12 -58 37 -66 11 -4 28 -24 39 -44
l18 -39 -34 20 c-18 11 -40 17 -48 14 -11 -4 -19 3 -26 22 -19 46 -27 92 -19
97 5 3 11 -9 13 -27 4 -33 4 -33 5 5 1 20 6 37 11 37 5 0 7 -9 4 -19z m-1173
-12 c0 -5 -4 -9 -10 -9 -5 0 -10 7 -10 16 0 8 5 12 10 9 6 -3 10 -10 10 -16z
m616 13 c6 -4 11 -23 11 -42 0 -19 -2 -28 -4 -19 -2 9 -14 22 -26 28 -22 11
-21 11 3 7 23 -5 23 -4 8 8 -27 20 -20 37 8 18z m377 -7 c-3 -9 -8 -14 -10
-11 -3 3 -2 9 2 15 9 16 15 13 8 -4z m-705 -40 c14 -30 -2 -37 -45 -19 -29 12
-30 16 -20 37 9 21 15 23 33 15 12 -6 27 -21 32 -33z m80 25 c10 -16 10 -20 0
-18 -8 2 -14 -10 -16 -31 -3 -32 -4 -33 -18 -13 -8 11 -12 27 -9 36 3 9 7 23
10 31 6 21 18 19 33 -5z m499 -2 c-3 -8 -6 -5 -6 6 -1 11 2 17 5 13 3 -3 4
-12 1 -19z m-1205 -10 c-7 -7 -12 -8 -12 -2 0 6 3 14 7 17 3 4 9 5 12 2 2 -3
-1 -11 -7 -17z m1187 4 c5 -10 6 -24 2 -31 -6 -9 -12 -4 -19 18 -12 33 1 43
17 13z m191 3 c8 -10 9 -15 2 -15 -7 0 -15 -15 -20 -32 l-9 -33 -8 37 c-10 53
8 76 35 43z m-1090 -5 c0 -6 -7 -21 -16 -34 -9 -14 -14 -40 -12 -62 3 -34 0
-38 -27 -45 -16 -5 -42 -22 -56 -39 l-27 -31 -6 27 c-6 23 -1 33 28 62 24 22
36 43 36 61 0 15 9 37 20 49 21 23 60 30 60 12z m753 -42 c24 -25 17 -31 -17
-19 -21 9 -26 17 -25 43 0 30 1 31 12 14 7 -11 20 -28 30 -38z m47 18 c-1 -21
-1 -21 -15 -2 -19 25 -19 37 0 30 8 -4 15 -16 15 -28z m55 -2 c9 -22 12 -47 8
-63 -6 -24 -8 -22 -15 18 -4 23 -10 52 -13 62 -11 33 4 20 20 -17z m341 -39
c16 -36 8 -52 -16 -30 -19 17 -31 70 -22 94 4 11 8 8 15 -10 5 -13 15 -37 23
-54z m-1076 54 c0 -20 -21 -49 -35 -49 -8 0 -19 9 -25 19 -14 28 -12 35 6 21
8 -8 14 -9 13 -4 -3 19 1 24 21 24 11 0 20 -5 20 -11z m60 -40 c0 -9 9 -24 20
-34 19 -17 19 -19 3 -37 -15 -17 -15 -18 -1 -13 26 10 29 34 7 56 -16 16 -18
23 -9 29 6 4 11 11 10 16 -3 15 17 15 30 -1 7 -8 19 -15 26 -15 21 0 17 -17
-6 -23 -16 -4 -20 -14 -20 -44 -1 -38 -27 -83 -49 -83 -6 0 -20 9 -31 20 -17
17 -18 24 -8 45 8 17 8 32 1 47 -12 28 4 89 18 66 5 -7 9 -20 9 -29z m637 19
c-3 -8 -6 -5 -6 6 -1 11 2 17 5 13 3 -3 4 -12 1 -19z m135 -3 c3 -14 1 -28 -3
-31 -5 -3 -9 9 -9 25 0 38 6 40 12 6z m-535 -7 c-3 -8 -6 -5 -6 6 -1 11 2 17
5 13 3 -3 4 -12 1 -19z m238 12 c3 -5 -3 -10 -14 -10 -12 0 -21 5 -21 10 0 6
6 10 14 10 8 0 18 -4 21 -10z m335 -36 c0 -11 11 -31 25 -44 32 -30 33 -54 3
-44 -13 3 -23 7 -23 8 -1 0 -6 14 -13 29 -15 35 -17 110 -2 87 5 -8 10 -24 10
-36z m-962 -25 c-23 -15 -38 -10 -38 14 0 13 5 28 12 35 10 10 15 7 26 -14 12
-22 12 -28 0 -35z m-118 31 c0 -20 -46 -80 -61 -80 -14 0 -11 53 5 76 19 26
56 29 56 4z m655 10 c3 -5 2 -10 -4 -10 -5 0 -13 5 -16 10 -3 6 -2 10 4 10 5
0 13 -4 16 -10z m485 -11 c0 -6 -4 -7 -10 -4 -5 3 -10 11 -10 16 0 6 5 7 10 4
6 -3 10 -11 10 -16z m-674 -16 c-7 -7 -26 7 -26 19 0 6 6 6 15 -2 9 -7 13 -15
11 -17z m771 7 c-4 -14 1 -24 16 -31 20 -11 20 -12 2 -25 -10 -8 -24 -14 -29
-14 -6 0 -4 5 4 10 13 8 13 10 -1 10 -23 0 -31 27 -16 50 16 26 31 26 24 0z
m-347 -17 c0 -20 -3 -24 -11 -16 -7 7 -9 19 -6 27 10 24 17 19 17 -11z m23
-55 c-10 -48 -24 -16 -16 38 6 45 7 47 14 20 4 -16 5 -42 2 -58z m117 52 c5 0
7 -7 3 -16 -5 -14 -7 -14 -21 -1 -9 10 -12 22 -7 34 8 17 8 17 12 1 3 -10 8
-18 13 -18z m-603 5 c1 -5 -17 -20 -42 -32 l-45 -22 0 23 c0 35 77 62 87 31z
m323 -6 c0 -11 -4 -17 -10 -14 -5 3 -10 13 -10 21 0 8 5 14 10 14 6 0 10 -9
10 -21z m358 -4 c-3 -3 -9 2 -12 12 -6 14 -5 15 5 6 7 -7 10 -15 7 -18z m-878
-18 c0 -20 -1 -20 -16 -5 -9 9 -13 21 -9 27 10 16 25 3 25 -22z m410 7 c0 -8
-4 -12 -10 -9 -5 3 -10 10 -10 16 0 5 5 9 10 9 6 0 10 -7 10 -16z m175 6 c-3
-5 -10 -10 -16 -10 -5 0 -9 5 -9 10 0 6 7 10 16 10 8 0 12 -4 9 -10z m152 -12
c-3 -8 -6 -5 -6 6 -1 11 2 17 5 13 3 -3 4 -12 1 -19z m210 -19 c20 -8 24 -12
14 -22 -9 -9 -17 -5 -36 18 -13 17 -24 35 -24 40 0 6 4 2 10 -8 6 -10 22 -23
36 -28z m-3 25 c5 -14 4 -15 -9 -4 -17 14 -19 20 -6 20 5 0 12 -7 15 -16z
m-686 -21 c-4 -37 -38 -45 -38 -10 0 23 10 34 33 36 5 1 7 -11 5 -26z m279 -5
c-3 -8 -6 -5 -6 6 -1 11 2 17 5 13 3 -3 4 -12 1 -19z m80 2 c-3 -11 -1 -18 3
-15 5 3 12 0 16 -6 5 -9 -1 -10 -22 -5 -36 9 -38 11 -31 31 10 24 40 19 34 -5z
m223 0 c0 -5 -7 -7 -15 -4 -8 4 -12 10 -9 15 6 11 24 2 24 -11z m-659 -47
c-12 -8 -21 -22 -21 -31 0 -23 -17 -3 -25 30 -6 24 -3 29 27 41 31 13 33 12
36 -6 2 -11 -5 -25 -17 -34z m214 48 c3 -5 1 -12 -5 -16 -5 -3 -10 1 -10 9 0
18 6 21 15 7z m325 -29 c0 -15 5 -34 11 -42 8 -12 9 -10 4 7 -3 13 -2 31 4 40
11 20 13 16 16 -39 1 -21 -1 -35 -6 -33 -4 3 -5 -4 -2 -15 3 -11 9 -20 14 -20
5 0 6 7 3 15 -9 22 24 8 36 -15 6 -10 35 -32 65 -48 30 -17 53 -26 50 -22 -3
5 -23 19 -45 31 -22 13 -42 31 -46 41 -3 10 -10 18 -15 18 -5 0 -9 18 -9 41 0
33 3 40 17 37 9 -2 20 -17 25 -34 4 -17 15 -37 23 -44 13 -11 13 -9 0 23 -20
47 -19 50 6 36 18 -9 20 -18 16 -49 -6 -45 -2 -52 43 -77 30 -17 35 -25 38
-62 l3 -42 -43 3 c-38 3 -45 7 -60 38 -10 19 -25 40 -33 46 -8 6 -11 14 -7 18
4 4 -6 4 -21 1 -41 -11 -78 11 -71 41 6 23 -20 84 -36 84 -11 0 -14 43 -4 53
12 12 24 -4 24 -31z m69 -7 c0 -11 -4 -29 -9 -40 -7 -17 -9 -14 -9 13 -1 18
-6 42 -12 53 -9 18 -8 19 10 7 12 -7 21 -22 20 -33z m-889 19 c0 -8 -4 -12
-10 -9 -5 3 -10 10 -10 16 0 5 5 9 10 9 6 0 10 -7 10 -16z m1195 -34 c0 -8
-10 -14 -23 -15 -24 -2 -62 20 -62 36 0 15 20 10 53 -13 l32 -22 -25 29 -25
29 25 -16 c14 -8 25 -21 25 -28z m-1226 -11 c-12 -21 -14 -22 -17 -6 -6 28 6
53 19 40 8 -8 7 -18 -2 -34z m-44 -15 c7 -52 -1 -66 -56 -95 -40 -20 -69 -25
-69 -11 0 5 10 28 21 53 53 111 92 131 104 53z m312 -30 c-1 -1 -13 5 -26 15
-21 16 -22 20 -11 42 13 23 13 23 27 -15 7 -22 12 -40 10 -42z m869 40 c38
-40 27 -76 -10 -38 -22 22 -36 50 -29 58 10 10 14 8 39 -20z m-1011 0 c27 -18
33 -52 13 -83 -11 -18 -13 -17 -26 17 -19 51 -26 82 -18 82 4 0 18 -7 31 -16z
m565 -37 c0 -16 -3 -17 -15 -7 -8 7 -15 24 -15 39 1 25 1 25 15 7 8 -11 15
-29 15 -39z m394 37 c5 -14 4 -15 -9 -4 -17 14 -19 20 -6 20 5 0 12 -7 15 -16z
m-1048 -50 c5 -37 4 -38 -10 -20 -18 22 -23 87 -6 70 6 -6 13 -28 16 -50z
m783 31 c2 20 2 20 16 1 8 -11 15 -31 15 -45 l0 -24 -25 23 c-15 14 -25 34
-24 49 l1 26 8 -25 c7 -21 8 -22 9 -5z m-292 -7 c-3 -8 -6 -5 -6 6 -1 11 2 17
5 13 3 -3 4 -12 1 -19z m-336 -32 c0 -11 3 -41 6 -64 l5 -44 -27 18 c-23 15
-26 22 -20 48 3 17 7 41 8 52 3 28 27 19 28 -10z m1094 24 c3 -5 2 -10 -4 -10
-5 0 -13 5 -16 10 -3 6 -2 10 4 10 5 0 13 -4 16 -10z m-1445 -41 c0 -17 -30
-27 -74 -26 -41 2 -51 -2 -70 -25 -12 -16 -27 -28 -34 -28 -15 0 -16 62 -2 76
11 11 180 13 180 3z m1389 -35 c35 -29 37 -42 15 -90 -19 -40 -34 -36 -34 9 0
18 -7 41 -15 51 -17 22 -20 56 -6 56 5 0 23 -12 40 -26z m-405 8 c2 -4 -4 -32
-14 -62 -20 -57 -26 -42 -14 33 6 35 17 47 28 29z"/>
<path d="M1860 530 c8 -5 20 -10 25 -10 6 0 3 5 -5 10 -8 5 -19 10 -25 10 -5
0 -3 -5 5 -10z"/>
<path d="M1362 2115 c-11 -12 -10 -15 3 -15 8 0 15 7 15 15 0 18 -2 18 -18 0z"/>
<path d="M1308 2113 c6 -2 18 -2 25 0 6 3 1 5 -13 5 -14 0 -19 -2 -12 -5z"/>
<path d="M818 1083 c6 -2 18 -2 25 0 6 3 1 5 -13 5 -14 0 -19 -2 -12 -5z"/>
<path d="M525 1070 c27 -12 43 -12 25 0 -8 5 -22 9 -30 9 -10 0 -8 -3 5 -9z"/>
<path d="M2185 970 c11 -5 27 -9 35 -9 9 0 8 4 -5 9 -11 5 -27 9 -35 9 -9 0
-8 -4 5 -9z"/>
<path d="M2358 653 c6 -2 18 -2 25 0 6 3 1 5 -13 5 -14 0 -19 -2 -12 -5z"/>
<path d="M239 553 c-12 -16 -12 -17 1 -7 8 7 24 14 35 17 19 4 19 5 -1 6 -12
0 -28 -7 -35 -16z"/>
<path d="M484 395 c-25 -19 -14 -19 22 0 16 8 22 15 13 15 -8 0 -24 -7 -35
-15z"/>
<path d="M209 353 c-13 -17 -13 -17 6 -3 11 8 22 16 24 17 2 2 0 3 -6 3 -6 0
-17 -8 -24 -17z"/>
<path d="M2290 203 c8 -3 27 -12 43 -20 15 -7 27 -11 27 -9 0 8 -58 36 -72 35
-9 0 -8 -2 2 -6z"/>
<path d="M1272 160 c0 -14 2 -19 5 -12 2 6 2 18 0 25 -3 6 -5 1 -5 -13z"/>
<path d="M500 98 c-24 -38 -51 -96 -34 -73 33 44 63 95 56 95 -4 0 -14 -10
-22 -22z"/>
</g>
</svg>
